<svg width="960" height="720" viewBox="0 0 960 720" fill="none" xmlns="http://www.w3.org/2000/svg">
  <defs>
    <linearGradient id="dusk" x1="163" y1="64" x2="792" y2="644" gradientUnits="userSpaceOnUse">
      <stop offset="0" stop-color="#201735"/>
      <stop offset="0.52" stop-color="#5D305F"/>
      <stop offset="1" stop-color="#F0B474"/>
    </linearGradient>
    <radialGradient id="lantern" cx="0" cy="0" r="1" gradientUnits="userSpaceOnUse" gradientTransform="translate(638 246) rotate(90) scale(189 189)">
      <stop offset="0" stop-color="#FFE9B6" stop-opacity="0.96"/>
      <stop offset="1" stop-color="#FFE9B6" stop-opacity="0"/>
    </radialGradient>
  </defs>
  <rect width="960" height="720" rx="36" fill="url(#dusk)"/>
  <rect x="552" y="140" width="172" height="276" rx="86" fill="url(#lantern)"/>
  <path d="M0 560C126 522 224 498 319 508C421 519 494 612 606 613C732 614 834 501 960 484V720H0V560Z" fill="#120E20" fill-opacity="0.86"/>
  <path d="M319 468C360 414 411 370 472 337C520 310 582 286 660 264" stroke="#FFD9A3" stroke-width="5" stroke-linecap="round" stroke-dasharray="1 18" opacity="0.85"/>
  <circle cx="680" cy="245" r="21" fill="#FFF1CF"/>
  <path d="M638 185V151" stroke="#FFF1CF" stroke-width="6" stroke-linecap="round"/>
  <path d="M610 214L638 185L666 214" stroke="#FFF1CF" stroke-width="6" stroke-linecap="round" stroke-linejoin="round"/>
  <path d="M638 298V344" stroke="#FFF1CF" stroke-width="7" stroke-linecap="round"/>
  <circle cx="638" cy="379" r="15" fill="#FFF1CF"/>
  <path d="M220 582C268 563 333 548 416 538" stroke="#B7838D" stroke-width="4" stroke-linecap="round" opacity="0.76"/>
</svg>
